#tb 0: 1/25
0,          0,          0,        1,  3110400, 0x1559c293
0,          1,          1,        1,  3110400, 0xd0802706
0,          2,          2,        1,  3110400, 0xb48cf229
0,          3,          3,        1,  3110400, 0x4108509b
0,          4,          4,        1,  3110400, 0xd1cec277
0,          5,          5,        1,  3110400, 0x3e68c589
0,          6,          6,        1,  3110400, 0x1543a517
0,          7,          7,        1,  3110400, 0x5ddcd669
0,          8,          8,        1,  3110400, 0x09bd4c27
0,          9,          9,        1,  3110400, 0xd583bfa1
0,         10,         10,        1,  3110400, 0xe9411279
0,         11,         11,        1,  3110400, 0xe07e6f3f
0,         12,         12,        1,  3110400, 0xcfd23191
0,         13,         13,        1,  3110400, 0x24276734
0,         14,         14,        1,  3110400, 0x485aeafe
0,         15,         15,        1,  3110400, 0xb8039a85
0,         16,         16,        1,  3110400, 0x1d154e19
0,         17,         17,        1,  3110400, 0xaa3ce800
0,         18,         18,        1,  3110400, 0xe2601cba
0,         19,         19,        1,  3110400, 0xb6657a57
0,         20,         20,        1,  3110400, 0x34dbda52
0,         21,         21,        1,  3110400, 0x921e218a
0,         22,         22,        1,  3110400, 0x7de5262f
0,         23,         23,        1,  3110400, 0x1a97e083
0,         24,         24,        1,  3110400, 0x4bfc81d0
0,         25,         25,        1,  3110400, 0x583396e6
0,         26,         26,        1,  3110400, 0xc96bcd39
0,         27,         27,        1,  3110400, 0x483cf7cf
0,         28,         28,        1,  3110400, 0x20882e52
0,         29,         29,        1,  3110400, 0x93d352fe
0,         30,         30,        1,  3110400, 0x0c932722
0,         31,         31,        1,  3110400, 0x78c5a9f0
0,         32,         32,        1,  3110400, 0xcea3bddd
0,         33,         33,        1,  3110400, 0x3e4e7c77
0,         34,         34,        1,  3110400, 0xbe048a0a
0,         35,         35,        1,  3110400, 0x1cf7ea0d
0,         36,         36,        1,  3110400, 0xeb60343a
0,         37,         37,        1,  3110400, 0x2158ed1f
0,         38,         38,        1,  3110400, 0x3a7126b1
0,         39,         39,        1,  3110400, 0x282804ff
0,         40,         40,        1,  3110400, 0x292ed438
0,         41,         41,        1,  3110400, 0x49a9769d
0,         42,         42,        1,  3110400, 0xdfc12632
0,         43,         43,        1,  3110400, 0xff3da16a
0,         44,         44,        1,  3110400, 0x134b68c6
0,         45,         45,        1,  3110400, 0x717e6f1d
0,         46,         46,        1,  3110400, 0x283293f5
0,         47,         47,        1,  3110400, 0x3d401456
0,         48,         48,        1,  3110400, 0x500eddac
0,         49,         49,        1,  3110400, 0x2a96fbff
0,         50,         50,        1,  3110400, 0x9d75f303
0,         51,         51,        1,  3110400, 0x08d1fa48
0,         52,         52,        1,  3110400, 0xa685a8da
0,         53,         53,        1,  3110400, 0xc19216d8
0,         54,         54,        1,  3110400, 0x61ebd7f2
0,         55,         55,        1,  3110400, 0x866c9002
0,         56,         56,        1,  3110400, 0x3edda174
0,         57,         57,        1,  3110400, 0x4e848db7
0,         58,         58,        1,  3110400, 0x1dd822ba
0,         59,         59,        1,  3110400, 0x8157b534
0,         60,         60,        1,  3110400, 0x72637dbe
0,         61,         61,        1,  3110400, 0xc6fc1305
0,         62,         62,        1,  3110400, 0xbfadeee4
0,         63,         63,        1,  3110400, 0xad20c230
0,         64,         64,        1,  3110400, 0x5afff02b
0,         65,         65,        1,  3110400, 0x5e533c71
0,         66,         66,        1,  3110400, 0x52e10588
0,         67,         67,        1,  3110400, 0x13a6dbb1
0,         68,         68,        1,  3110400, 0xc74de5ae
0,         69,         69,        1,  3110400, 0x382aafb8
0,         70,         70,        1,  3110400, 0x5e0a11b2
0,         71,         71,        1,  3110400, 0x049fe7cc
0,         72,         72,        1,  3110400, 0x9d79484e
0,         73,         73,        1,  3110400, 0x1116ced8
0,         74,         74,        1,  3110400, 0x5d8d075d
0,         75,         75,        1,  3110400, 0x49392496
0,         76,         76,        1,  3110400, 0x5f24b3b3
0,         77,         77,        1,  3110400, 0x6ca1c16d
0,         78,         78,        1,  3110400, 0x131a16d2
0,         79,         79,        1,  3110400, 0x39e2f9a1
0,         80,         80,        1,  3110400, 0x988bd0ee
0,         81,         81,        1,  3110400, 0xa6c050ec
0,         82,         82,        1,  3110400, 0x5275142a
0,         83,         83,        1,  3110400, 0x5705923d
0,         84,         84,        1,  3110400, 0x3098d52d
0,         85,         85,        1,  3110400, 0xb16e2eb7
0,         86,         86,        1,  3110400, 0x0dee6bc8
0,         87,         87,        1,  3110400, 0x577acf61
0,         88,         88,        1,  3110400, 0x2b70d954
0,         89,         89,        1,  3110400, 0x26b5f1c5
0,         90,         90,        1,  3110400, 0x2351ad88
0,         91,         91,        1,  3110400, 0xe5bdf6ad
0,         92,         92,        1,  3110400, 0xaf0d83de
0,         93,         93,        1,  3110400, 0xaee86799
0,         94,         94,        1,  3110400, 0xe73fe067
0,         95,         95,        1,  3110400, 0x46b90697
0,         96,         96,        1,  3110400, 0xb270f77a
0,         97,         97,        1,  3110400, 0xf33aa535
0,         98,         98,        1,  3110400, 0xcafe6eec
0,         99,         99,        1,  3110400, 0xcf051a31
